<svg width="1035" height="453" viewBox="0 0 1035 453" fill="none" xmlns="http://www.w3.org/2000/svg">
<path d="M75.5532 81.8178C72.8917 82.5571 69.2691 82.9267 64.6855 82.9267C60.1019 82.9267 56.4793 82.4832 53.8179 81.596C51.1564 80.7088 49.2342 79.2302 48.0514 77.1602C47.0163 74.9423 46.351 73.0202 46.0553 71.3937C45.9074 69.6194 45.8335 67.0319 45.8335 63.6311C45.8335 60.2303 45.9074 57.7167 46.0553 56.0903C46.351 54.4638 47.0163 52.6156 48.0514 50.5456C50.1214 46.7012 55.814 44.7791 65.1291 44.7791C74.0006 44.7791 79.5454 46.7012 81.7632 50.5456C82.7983 52.4677 83.3897 54.242 83.5376 55.8685C83.8333 57.4949 83.9811 59.9346 83.9811 63.1875V64.5183C83.9811 67.7712 83.8333 70.2108 83.5376 71.8373C83.3897 73.4637 82.7243 75.312 81.5415 77.382C80.3586 79.452 78.3625 80.9306 75.5532 81.8178ZM54.0397 99.7827C56.849 98.8955 60.5455 98.4519 65.1291 98.4519C69.7127 98.4519 73.3353 98.8955 75.9967 99.7827C78.6582 100.67 80.5064 102.222 81.5415 104.44C82.7243 106.51 83.3897 108.432 83.5376 110.207C83.8333 111.833 83.9811 114.347 83.9811 117.748V209.125C83.9811 226.424 77.9928 240.249 66.0162 250.599C54.0397 260.949 40.8802 266.124 26.5378 266.124C23.1371 266.124 20.6235 265.976 18.997 265.681C17.3706 265.533 15.5223 264.941 13.4523 263.906C9.60797 261.836 7.6858 256.439 7.6858 247.716C7.6858 238.992 9.31225 233.521 12.5651 231.303C15.6702 229.086 19.9581 227.977 25.4289 227.977C30.7518 227.977 35.4833 226.498 39.6234 223.541C43.7634 220.584 45.8335 215.261 45.8335 207.572V116.195C45.8335 111.02 46.4988 107.25 47.8296 104.884C49.3082 102.37 51.3782 100.67 54.0397 99.7827ZM177.566 111.537C178.453 103.257 184.293 99.1173 195.087 99.1173C200.853 99.1173 205.141 99.5609 207.951 100.448C210.76 101.335 212.682 102.888 213.717 105.106C214.9 107.323 215.565 109.32 215.713 111.094C216.009 112.72 216.157 115.234 216.157 118.635V196.261C216.157 199.662 216.009 202.249 215.713 204.023C215.565 205.65 214.974 207.572 213.939 209.79C211.869 213.634 206.768 215.556 198.636 215.556C190.651 215.556 185.254 214.595 182.445 212.673C179.783 210.603 178.231 207.646 177.787 203.802C172.317 211.638 163.149 215.556 150.286 215.556C137.57 215.556 125.741 209.716 114.799 198.035C103.858 186.354 98.387 172.825 98.387 157.448C98.387 141.923 103.858 128.393 114.799 116.86C125.889 105.18 138.013 99.3391 151.173 99.3391C156.2 99.3391 160.784 100.226 164.924 102.001C169.064 103.775 171.947 105.475 173.573 107.102C175.2 108.58 176.531 110.059 177.566 111.537ZM137.2 157.67C137.2 162.549 139.122 166.985 142.967 170.977C146.811 174.821 151.468 176.743 156.939 176.743C162.41 176.743 166.92 174.747 170.468 170.755C174.165 166.763 176.013 162.401 176.013 157.67C176.013 152.79 174.239 148.28 170.69 144.14C167.289 140 162.632 137.93 156.717 137.93C150.951 137.93 146.219 140 142.523 144.14C138.974 148.28 137.2 152.79 137.2 157.67ZM233.834 63.6311C233.834 60.2303 233.908 57.7167 234.056 56.0903C234.352 54.316 235.017 52.3199 236.052 50.102C238.122 46.1098 243.889 44.1137 253.352 44.1137C262.371 44.1137 267.99 46.1098 270.207 50.102C271.39 52.3199 272.056 54.316 272.204 56.0903C272.499 57.8646 272.647 60.4521 272.647 63.8529V166.541C272.647 171.864 273.091 175.265 273.978 176.743C274.865 178.074 276.787 178.739 279.744 178.739C282.849 178.739 284.919 178.887 285.954 179.183C286.989 179.331 288.246 179.922 289.725 180.957C292.682 182.88 294.161 188.129 294.161 196.704C294.161 206.02 292.682 211.712 289.725 213.782C285.881 216.444 276.713 216.887 262.223 215.113C250.838 213.634 243.445 209.864 240.044 203.802C235.904 196.557 233.834 185.024 233.834 169.203V63.6311ZM382.244 111.537C383.131 103.257 388.971 99.1173 399.765 99.1173C405.532 99.1173 409.819 99.5609 412.629 100.448C415.438 101.335 417.36 102.888 418.395 105.106C419.578 107.323 420.244 109.32 420.391 111.094C420.687 112.72 420.835 115.234 420.835 118.635V196.261C420.835 199.662 420.687 202.249 420.391 204.023C420.244 205.65 419.652 207.572 418.617 209.79C416.547 213.634 411.446 215.556 403.314 215.556C395.329 215.556 389.932 214.595 387.123 212.673C384.462 210.603 382.909 207.646 382.466 203.802C376.995 211.638 367.827 215.556 354.964 215.556C342.248 215.556 330.419 209.716 319.478 198.035C308.536 186.354 303.065 172.825 303.065 157.448C303.065 141.923 308.536 128.393 319.478 116.86C330.567 105.18 342.691 99.3391 355.851 99.3391C360.878 99.3391 365.462 100.226 369.602 102.001C373.742 103.775 376.625 105.475 378.252 107.102C379.878 108.58 381.209 110.059 382.244 111.537ZM341.878 157.67C341.878 162.549 343.8 166.985 347.645 170.977C351.489 174.821 356.147 176.743 361.617 176.743C367.088 176.743 371.598 174.747 375.146 170.755C378.843 166.763 380.691 162.401 380.691 157.67C380.691 152.79 378.917 148.28 375.368 144.14C371.968 140 367.31 137.93 361.396 137.93C355.629 137.93 350.898 140 347.201 144.14C343.652 148.28 341.878 152.79 341.878 157.67ZM503.496 99.1173C518.282 99.1173 530.555 104.81 540.313 116.195C550.22 127.432 555.173 141.183 555.173 157.448V196.483C555.173 199.883 555.025 202.471 554.73 204.245C554.582 205.872 553.99 207.72 552.955 209.79C550.885 213.782 545.119 215.778 535.656 215.778C525.158 215.778 519.095 213.043 517.469 207.572C516.582 205.058 516.138 201.288 516.138 196.261V157.226C516.138 151.164 514.364 146.432 510.815 143.031C507.415 139.631 502.757 137.93 496.843 137.93C491.076 137.93 486.345 139.705 482.648 143.253C479.1 146.802 477.325 151.459 477.325 157.226V196.483C477.325 199.883 477.177 202.471 476.882 204.245C476.734 205.872 476.068 207.72 474.886 209.79C472.963 213.782 467.271 215.778 457.808 215.778C448.493 215.778 442.8 213.782 440.73 209.79C439.695 207.572 439.03 205.65 438.734 204.023C438.586 202.249 438.512 199.662 438.512 196.261V117.748C438.512 114.495 438.586 112.055 438.734 110.429C439.03 108.654 439.769 106.732 440.952 104.662C443.022 100.966 448.715 99.1173 458.03 99.1173C467.049 99.1173 472.594 100.818 474.664 104.218C476.142 106.732 476.882 109.763 476.882 113.312C477.473 112.277 478.804 110.798 480.874 108.876C482.944 106.954 484.94 105.401 486.862 104.218C491.889 100.818 497.434 99.1173 503.496 99.1173Z" fill="#6245BE"/>
<path d="M8.87155 432.54V303.015C8.87155 299.614 8.94548 297.101 9.09334 295.474C9.38906 293.848 10.0544 292 11.0894 289.93C13.1595 285.937 18.1128 283.941 25.9493 283.941C33.7858 283.941 39.0348 284.976 41.6963 287.046C44.5056 288.969 46.1321 291.852 46.5756 295.696C52.1943 288.007 60.9919 284.163 72.9685 284.163C85.093 284.163 96.552 289.856 107.346 301.241C118.139 312.626 123.536 325.859 123.536 340.941C123.536 356.023 118.139 369.256 107.346 380.641C96.6999 392.026 85.3148 397.719 73.1903 397.719C61.0658 397.719 52.2682 394.318 46.7974 387.517V432.318C46.7974 435.719 46.6496 438.232 46.3539 439.859C46.206 441.485 45.5406 443.333 44.3578 445.404C43.3227 447.621 41.4745 449.174 38.813 450.061C36.1516 450.948 32.529 451.392 27.9454 451.392C23.3618 451.392 19.6653 450.948 16.8559 450.061C14.1945 449.174 12.2723 447.695 11.0894 445.625C10.0544 443.555 9.38906 441.707 9.09334 440.081C8.94548 438.454 8.87155 435.941 8.87155 432.54ZM52.7857 328.077C49.385 332.069 47.6846 336.431 47.6846 341.163C47.6846 345.894 49.385 350.256 52.7857 354.248C56.3344 358.093 60.7701 360.015 66.0931 360.015C71.5638 360.015 76.1475 358.093 79.844 354.248C83.6883 350.404 85.6105 346.042 85.6105 341.163C85.6105 336.283 83.8362 331.922 80.2875 328.077C76.7389 324.085 72.0814 322.089 66.3148 322.089C60.6962 322.089 56.1865 324.085 52.7857 328.077ZM189.858 400.38C174.924 400.38 162.504 394.762 152.598 383.524C142.839 372.139 137.96 358.314 137.96 342.05V303.237C137.96 299.688 138.033 297.101 138.181 295.474C138.477 293.848 139.142 291.926 140.177 289.708C142.247 285.716 148.014 283.72 157.477 283.72C167.827 283.72 173.889 286.529 175.664 292.147C176.551 294.513 176.994 298.284 176.994 303.459V342.272C176.994 348.334 178.695 353.065 182.096 356.466C185.644 359.867 190.302 361.567 196.068 361.567C201.983 361.567 206.714 359.793 210.263 356.244C213.959 352.696 215.807 348.038 215.807 342.272V303.015C215.807 299.614 215.881 297.101 216.029 295.474C216.325 293.7 217.064 291.704 218.247 289.486C220.169 285.642 225.862 283.72 235.325 283.72C244.64 283.72 250.333 285.716 252.403 289.708C253.438 291.926 254.029 293.922 254.177 295.696C254.473 297.323 254.62 299.836 254.62 303.237V381.75C254.62 385.003 254.473 387.517 254.177 389.291C254.029 390.917 253.364 392.766 252.181 394.836C249.963 398.68 244.27 400.602 235.103 400.602C226.084 400.602 220.539 398.828 218.469 395.279C216.99 392.766 216.251 389.735 216.251 386.186C215.66 387.221 214.329 388.7 212.259 390.622C210.189 392.544 208.193 394.17 206.27 395.501C201.243 398.754 195.772 400.38 189.858 400.38ZM272.462 248.455C272.462 245.054 272.536 242.541 272.684 240.914C272.98 239.14 273.645 237.144 274.68 234.926C276.75 230.934 282.517 228.938 291.98 228.938C300.999 228.938 306.618 230.934 308.836 234.926C310.019 237.144 310.684 239.14 310.832 240.914C311.127 242.689 311.275 245.276 311.275 248.677V351.365C311.275 356.688 311.719 360.089 312.606 361.567C313.493 362.898 315.415 363.563 318.373 363.563C321.478 363.563 323.548 363.711 324.583 364.007C325.618 364.155 326.874 364.746 328.353 365.781C331.31 367.704 332.789 372.953 332.789 381.528C332.789 390.843 331.31 396.536 328.353 398.606C324.509 401.268 315.341 401.711 300.851 399.937C289.466 398.458 282.073 394.688 278.672 388.626C274.532 381.38 272.462 369.847 272.462 354.027V248.455ZM420.872 296.361C421.759 288.081 427.6 283.941 438.393 283.941C444.16 283.941 448.448 284.385 451.257 285.272C454.066 286.159 455.988 287.712 457.024 289.93C458.206 292.147 458.872 294.144 459.02 295.918C459.315 297.544 459.463 300.058 459.463 303.459V381.085C459.463 384.486 459.315 387.073 459.02 388.847C458.872 390.474 458.28 392.396 457.245 394.614C455.175 398.458 450.074 400.38 441.942 400.38C433.957 400.38 428.561 399.419 425.751 397.497C423.09 395.427 421.537 392.47 421.094 388.626C415.623 396.462 406.456 400.38 393.592 400.38C380.876 400.38 369.047 394.54 358.106 382.859C347.164 371.178 341.693 357.649 341.693 342.272C341.693 326.747 347.164 313.217 358.106 301.684C369.195 290.004 381.32 284.163 394.479 284.163C399.506 284.163 404.09 285.05 408.23 286.825C412.37 288.599 415.253 290.299 416.88 291.926C418.506 293.404 419.837 294.883 420.872 296.361ZM380.506 342.494C380.506 347.373 382.429 351.809 386.273 355.801C390.117 359.645 394.775 361.567 400.246 361.567C405.716 361.567 410.226 359.571 413.775 355.579C417.471 351.587 419.319 347.225 419.319 342.494C419.319 337.614 417.545 333.104 413.996 328.964C410.596 324.824 405.938 322.754 400.024 322.754C394.257 322.754 389.526 324.824 385.829 328.964C382.281 333.104 380.506 337.614 380.506 342.494ZM542.125 283.941C556.91 283.941 569.183 289.634 578.941 301.019C588.848 312.256 593.801 326.007 593.801 342.272V381.307C593.801 384.707 593.653 387.295 593.358 389.069C593.21 390.696 592.618 392.544 591.583 394.614C589.513 398.606 583.747 400.602 574.284 400.602C563.786 400.602 557.724 397.867 556.097 392.396C555.21 389.882 554.767 386.112 554.767 381.085V342.05C554.767 335.988 552.992 331.256 549.444 327.855C546.043 324.455 541.385 322.754 535.471 322.754C529.704 322.754 524.973 324.529 521.276 328.077C517.728 331.626 515.953 336.283 515.953 342.05V381.307C515.953 384.707 515.806 387.295 515.51 389.069C515.362 390.696 514.697 392.544 513.514 394.614C511.592 398.606 505.899 400.602 496.436 400.602C487.121 400.602 481.428 398.606 479.358 394.614C478.323 392.396 477.658 390.474 477.362 388.847C477.214 387.073 477.14 384.486 477.14 381.085V302.572C477.14 299.319 477.214 296.879 477.362 295.253C477.658 293.478 478.397 291.556 479.58 289.486C481.65 285.79 487.343 283.941 496.658 283.941C505.677 283.941 511.222 285.642 513.292 289.042C514.771 291.556 515.51 294.587 515.51 298.136C516.101 297.101 517.432 295.622 519.502 293.7C521.572 291.778 523.568 290.225 525.49 289.042C530.518 285.642 536.062 283.941 542.125 283.941ZM685.721 386.186C680.102 393.579 671.157 397.275 658.884 397.275C646.612 397.275 635.079 391.657 624.285 380.419C613.639 369.034 608.316 355.801 608.316 340.719C608.316 325.638 613.713 312.404 624.507 301.019C635.301 289.634 647.129 283.941 659.993 283.941C665.02 283.941 669.604 284.902 673.744 286.825C677.884 288.599 680.693 290.299 682.172 291.926C683.799 293.404 685.055 294.809 685.942 296.14C686.386 292 687.865 288.895 690.378 286.825C693.04 284.607 697.254 283.498 703.02 283.498C708.787 283.498 713.001 283.941 715.662 284.828C718.324 285.716 720.172 287.268 721.207 289.486C722.39 291.556 723.055 293.404 723.203 295.031C723.499 296.657 723.647 299.171 723.647 302.572V394.392C723.647 411.396 717.732 425.073 705.903 435.423C694.075 445.921 680.767 451.17 665.981 451.17C654.744 451.17 644.024 448.435 633.822 442.964C623.62 437.493 618.519 432.54 618.519 428.104C618.519 422.337 620.737 417.236 625.172 412.801C627.982 409.696 630.126 407.552 631.604 406.369C633.231 405.186 635.079 404.594 637.149 404.594C639.219 404.594 641.363 405.482 643.581 407.256C650.678 412.727 658.367 415.462 666.647 415.462C672.265 415.462 676.849 413.244 680.398 408.808C683.946 404.373 685.721 399.05 685.721 392.84V386.186ZM646.242 340.941C646.242 345.672 648.091 349.96 651.787 353.805C655.631 357.649 660.215 359.571 665.538 359.571C671.009 359.571 675.518 357.649 679.067 353.805C682.616 349.813 684.39 345.525 684.39 340.941C684.39 336.21 682.69 331.848 679.289 327.855C675.888 323.715 671.304 321.645 665.538 321.645C659.771 321.645 655.114 323.641 651.565 327.634C648.017 331.626 646.242 336.062 646.242 340.941ZM775.758 364.229C778.272 366.742 779.529 371.918 779.529 379.754V380.641C779.529 384.19 779.381 386.851 779.085 388.626C778.937 390.252 778.198 392.248 776.867 394.614C774.649 398.902 769.031 401.046 760.011 401.046C751.14 401.046 745.225 399.641 742.268 396.832C739.459 394.022 738.054 388.7 738.054 380.863V379.976C738.054 376.575 738.128 373.988 738.276 372.213C738.572 370.439 739.311 368.443 740.494 366.225C742.712 361.789 748.256 359.571 757.128 359.571C766.147 359.571 772.357 361.124 775.758 364.229ZM830.608 342.494C830.608 348.704 832.678 353.583 836.818 357.132C840.958 360.532 845.32 362.233 849.903 362.233C854.635 362.233 858.997 360.902 862.989 358.241C867.129 355.431 870.456 354.027 872.969 354.027C877.405 354.027 882.802 357.945 889.16 365.781C892.561 370.069 894.261 373.914 894.261 377.314C894.261 382.933 890.195 388.182 882.063 393.061C873.635 398.976 863.285 401.933 851.012 401.933C837.261 401.933 824.028 396.98 811.312 387.073C805.25 382.342 800.296 376.058 796.452 368.221C792.608 360.237 790.686 351.513 790.686 342.05C790.686 332.439 792.608 323.789 796.452 316.101C800.296 308.264 805.25 301.98 811.312 297.249C823.584 287.49 836.67 282.611 850.569 282.611C856.187 282.611 861.658 283.424 866.981 285.05C872.304 286.529 876.222 288.007 878.736 289.486L882.284 291.704C884.946 293.478 887.016 294.883 888.495 295.918C892.339 298.875 894.261 302.276 894.261 306.12C894.261 309.817 892.708 314.031 889.603 318.762C884.281 326.894 879.179 330.961 874.3 330.961C871.491 330.961 867.498 329.334 862.323 326.081C859.662 323.568 855.818 322.311 850.79 322.311C845.911 322.311 841.327 324.085 837.04 327.634C832.752 331.182 830.608 336.136 830.608 342.494ZM905.262 342.494C905.262 324.75 911.472 310.112 923.892 298.579C936.312 287.046 950.507 281.28 966.476 281.28C982.445 281.28 996.565 287.046 1008.84 298.579C1021.11 309.965 1027.25 324.529 1027.25 342.272C1027.25 354.544 1024.07 365.486 1017.71 375.096C1011.35 384.559 1003.59 391.583 994.421 396.166C985.402 400.602 976.013 402.82 966.254 402.82C956.495 402.82 947.032 400.454 937.865 395.723C928.698 390.843 920.935 383.746 914.577 374.431C908.367 364.968 905.262 354.322 905.262 342.494ZM951.616 358.462C956.347 362.011 961.153 363.785 966.032 363.785C970.912 363.785 975.791 361.937 980.67 358.241C985.55 354.544 987.989 349.073 987.989 341.828C987.989 334.583 985.697 329.186 981.114 325.638C976.53 322.089 971.577 320.315 966.254 320.315C960.931 320.315 955.978 322.163 951.394 325.859C946.81 329.556 944.519 335.027 944.519 342.272C944.519 349.369 946.884 354.766 951.616 358.462Z" fill="#6245BE"/>
<path fill-rule="evenodd" clip-rule="evenodd" d="M657.399 98.572C634.582 98.572 616.085 117.069 616.085 139.886V174.314C616.085 174.314 616.085 174.314 616.085 174.314C616.085 197.131 634.582 215.627 657.399 215.627H691.827C714.643 215.627 733.14 197.131 733.14 174.314C733.14 153.672 718.001 136.565 698.22 133.492C695.147 113.711 678.041 98.572 657.399 98.572Z" fill="#6245BE"/>
</svg>
