<?xml version="1.0" standalone="no"?>
<!DOCTYPE svg PUBLIC "-//W3C//DTD SVG 20010904//EN"
 "http://www.w3.org/TR/2001/REC-SVG-20010904/DTD/svg10.dtd">
<svg version="1.0" xmlns="http://www.w3.org/2000/svg"
 width="10000.000000pt" height="10000.000000pt" viewBox="0 0 10000.000000 10000.000000"
 preserveAspectRatio="xMidYMid meet">

<g transform="translate(0.000000,10000.000000) scale(0.100000,-0.100000)"
fill="#000000" stroke="none">
<path d="M49035 93114 c-383 -8 -1235 -43 -1570 -64 -703 -44 -833 -54 -1410
-106 -272 -24 -396 -36 -710 -69 -381 -41 -644 -73 -1200 -145 -100 -13 -397
-56 -555 -80 -74 -11 -166 -25 -205 -30 -277 -41 -950 -155 -1300 -221 -88
-17 -182 -34 -210 -39 -61 -10 -593 -117 -800 -160 -869 -182 -1992 -459
-2845 -702 -96 -27 -222 -63 -280 -79 -58 -16 -132 -38 -165 -49 -33 -10 -100
-30 -150 -45 -79 -23 -177 -53 -410 -125 -109 -33 -389 -121 -445 -140 -30
-10 -179 -59 -330 -109 -331 -108 -808 -273 -1065 -366 -55 -20 -129 -47 -165
-60 -36 -13 -103 -37 -150 -55 -47 -18 -116 -43 -154 -57 -197 -70 -1065 -411
-1421 -558 -203 -84 -697 -295 -840 -360 -27 -13 -126 -57 -220 -98 -93 -41
-195 -86 -225 -100 -30 -14 -188 -87 -350 -162 -500 -232 -1337 -643 -1760
-865 -221 -116 -382 -201 -435 -230 -27 -15 -106 -58 -175 -95 -686 -372
-1264 -706 -2030 -1172 -458 -279 -1250 -791 -1727 -1117 -2980 -2038 -5675
-4413 -8039 -7086 -183 -207 -208 -235 -479 -550 -1405 -1633 -2805 -3553
-3962 -5433 -399 -648 -934 -1573 -1193 -2062 -29 -55 -61 -113 -70 -130 -10
-16 -35 -64 -57 -105 -22 -41 -66 -124 -98 -183 -254 -478 -749 -1474 -933
-1877 -11 -25 -41 -90 -67 -145 -75 -160 -271 -596 -347 -770 -390 -892 -702
-1671 -1023 -2550 -18 -49 -43 -117 -55 -150 -20 -55 -75 -211 -195 -555 -63
-178 -249 -740 -318 -960 -31 -96 -70 -220 -87 -275 -121 -381 -354 -1189
-475 -1640 -20 -77 -47 -178 -60 -225 -30 -109 -196 -771 -230 -921 -15 -63
-35 -150 -46 -194 -141 -597 -346 -1591 -454 -2200 -43 -240 -124 -727 -145
-865 -6 -36 -17 -108 -25 -160 -80 -507 -197 -1399 -250 -1905 -8 -82 -20
-188 -25 -235 -5 -47 -14 -134 -20 -195 -6 -60 -15 -155 -20 -210 -42 -430
-85 -1007 -120 -1580 -84 -1409 -91 -3128 -20 -4625 25 -527 79 -1298 125
-1800 44 -470 59 -623 105 -1027 14 -126 59 -501 65 -547 3 -21 14 -107 25
-190 11 -83 24 -182 30 -221 6 -38 26 -182 46 -320 19 -137 41 -288 48 -335 8
-47 19 -119 25 -160 11 -72 133 -801 151 -905 32 -182 51 -286 59 -325 6 -25
17 -85 26 -135 22 -118 104 -529 155 -780 47 -229 170 -779 230 -1030 22 -93
51 -217 65 -275 28 -119 160 -645 200 -795 15 -55 35 -134 46 -175 24 -91 59
-218 100 -365 17 -60 37 -134 45 -164 40 -150 135 -477 194 -671 123 -407 168
-552 295 -950 187 -587 491 -1449 736 -2087 325 -849 746 -1856 1015 -2432 24
-51 44 -95 44 -97 0 -7 240 -520 368 -784 233 -484 603 -1214 767 -1515 12
-22 50 -94 85 -160 35 -66 82 -154 105 -195 23 -41 61 -111 85 -155 56 -104
308 -553 378 -675 30 -52 73 -126 95 -165 233 -409 760 -1276 1032 -1695 37
-58 104 -161 149 -230 347 -537 819 -1222 1311 -1904 123 -171 637 -853 800
-1061 1139 -1461 2252 -2722 3535 -4005 622 -623 858 -851 1320 -1275 560
-515 1007 -907 1620 -1419 218 -183 902 -737 1001 -811 15 -11 141 -108 280
-216 1244 -959 2406 -1762 3729 -2577 496 -306 1142 -686 1515 -892 33 -18 94
-52 135 -75 96 -54 468 -257 585 -320 50 -26 117 -62 150 -80 351 -188 1231
-634 1515 -768 52 -24 183 -86 290 -137 225 -107 621 -290 625 -290 2 0 32
-13 67 -29 410 -189 1058 -464 1821 -772 588 -238 1583 -599 2315 -840 152
-50 297 -98 322 -106 98 -32 356 -114 485 -153 33 -10 164 -50 290 -88 393
-120 940 -275 1355 -385 74 -20 171 -46 215 -57 251 -67 837 -210 1265 -310
301 -70 1115 -242 1330 -281 25 -5 106 -20 180 -34 628 -121 1502 -265 2090
-346 422 -57 520 -70 690 -89 47 -6 96 -12 110 -15 29 -6 302 -36 575 -65 105
-11 233 -24 285 -30 746 -79 1793 -152 2740 -190 1061 -42 2384 -38 3515 10
521 22 1313 72 1750 110 61 5 166 14 235 20 211 18 860 83 998 100 207 25 260
32 457 55 116 14 244 29 285 35 41 5 161 22 265 36 198 26 486 67 590 84 33 5
92 14 130 20 922 134 2341 408 3290 635 33 8 110 26 170 40 301 72 897 222
1110 280 631 173 917 255 1350 385 242 73 310 94 593 184 477 151 1072 353
1467 496 33 12 92 33 130 47 495 178 1551 588 1762 684 24 10 45 19 48 19 3 0
65 25 137 56 955 403 1643 718 2518 1152 506 252 767 386 1275 660 341 183
358 193 540 295 88 50 178 100 201 113 22 13 133 76 245 140 112 64 219 125
237 136 48 26 270 159 527 313 2343 1406 4546 3033 6600 4874 611 547 1016
932 1670 1585 499 498 608 609 870 886 1445 1526 2793 3175 4012 4910 426 607
1000 1475 1331 2015 27 44 104 170 172 280 362 590 769 1300 1172 2045 62 114
220 411 308 580 94 180 600 1195 600 1203 0 2 41 89 90 191 50 103 90 189 90
191 0 2 27 60 60 130 33 70 60 128 60 130 0 1 23 52 51 111 28 60 82 179 119
264 37 85 82 187 100 225 134 289 650 1539 770 1865 16 41 72 190 125 330 53
140 117 311 141 380 25 69 53 148 64 175 26 71 63 173 104 293 20 56 52 146
70 200 56 157 289 861 356 1072 34 107 72 229 85 270 13 41 30 98 39 125 8 28
37 124 64 215 28 91 54 181 60 200 6 19 48 168 95 330 72 248 156 552 257 930
41 155 119 462 169 665 228 938 373 1619 556 2610 42 226 147 855 176 1050 6
39 14 95 19 125 119 772 242 1787 315 2605 8 94 19 220 25 280 42 464 88 1210
120 1960 41 940 41 2404 0 3390 -20 480 -52 1066 -80 1445 -6 74 -15 196 -20
270 -6 74 -15 182 -20 240 -5 58 -14 161 -20 230 -14 162 -58 622 -65 680 -3
25 -12 106 -20 180 -40 375 -108 920 -160 1290 -99 697 -226 1472 -331 2020
-204 1058 -451 2153 -677 2995 -13 50 -36 135 -51 190 -42 156 -91 333 -192
685 -110 388 -226 771 -358 1189 -84 265 -277 844 -362 1084 -19 53 -50 143
-70 200 -41 117 -55 156 -158 437 -205 562 -406 1079 -644 1655 -102 247 -263
625 -335 785 -11 25 -43 99 -72 165 -48 109 -202 452 -270 600 -42 91 -193
411 -276 585 -93 196 -533 1077 -637 1275 -573 1098 -1195 2176 -1845 3200
-2082 3279 -4609 6275 -7502 8895 -1502 1360 -3131 2638 -4800 3766 -914 617
-2000 1291 -2875 1784 -209 118 -213 120 -285 160 -33 18 -94 52 -135 75 -41
23 -131 73 -200 110 -69 37 -147 80 -175 95 -686 373 -1758 908 -2490 1243
-402 183 -879 393 -1240 545 -335 141 -424 178 -725 297 -576 228 -734 289
-1070 411 -113 42 -245 90 -295 109 -49 18 -103 38 -120 43 -16 6 -102 36
-190 67 -432 153 -1004 343 -1447 481 -43 13 -115 36 -160 50 -46 14 -96 30
-113 34 -16 5 -82 24 -145 43 -115 35 -460 137 -535 158 -22 6 -51 15 -65 20
-27 9 -507 142 -660 183 -52 14 -131 35 -175 46 -138 37 -894 227 -1030 258
-253 60 -360 85 -395 92 -19 4 -141 31 -270 60 -129 29 -253 56 -275 61 -22 4
-116 24 -210 44 -93 19 -240 49 -325 66 -85 17 -199 39 -252 50 -54 11 -121
24 -150 29 -29 5 -163 29 -298 55 -298 55 -902 157 -1280 215 -453 70 -1042
147 -1750 230 -126 14 -660 68 -855 86 -287 26 -798 65 -1080 83 -489 32 -489
32 -1395 72 -225 9 -2109 20 -2435 13z m1765 -6694 c1828 -43 3542 -202 5285
-491 4062 -673 7953 -2017 11575 -3997 4933 -2696 9212 -6523 12446 -11132
1731 -2466 3173 -5190 4227 -7980 242 -643 616 -1731 597 -1738 -9 -3 -186 19
-675 83 -104 14 -300 38 -435 55 -230 28 -392 50 -655 85 -121 16 -689 91
-995 130 -107 14 -226 30 -265 35 -38 6 -173 24 -300 41 -126 16 -313 41 -415
55 -189 25 -812 114 -1110 158 -91 14 -228 34 -305 45 -77 12 -212 32 -300 46
-88 13 -234 36 -325 50 -285 43 -676 105 -925 145 -428 70 -536 88 -770 129
-126 22 -311 54 -410 71 -458 78 -1863 355 -2055 405 -30 8 -118 28 -195 44
-77 17 -225 51 -330 76 -104 25 -230 55 -280 67 -541 126 -895 222 -1570 426
-537 163 -1003 312 -2060 662 -1094 362 -1397 474 -1885 691 -266 119 -803
400 -1150 602 -85 49 -193 112 -240 139 -531 309 -1227 805 -1626 1160 -170
150 -185 164 -629 593 -160 154 -353 341 -431 415 -78 74 -321 317 -540 540
-1223 1242 -1536 1532 -1934 1797 -259 172 -478 260 -747 298 -162 24 -1050
17 -1193 -9 -426 -76 -784 -235 -1075 -476 -44 -36 -133 -101 -198 -144 -457
-304 -791 -877 -941 -1616 -55 -267 -67 -431 -73 -957 l-5 -493 -22 5 c-11 2
-73 14 -136 25 -647 117 -1349 305 -2025 543 -71 25 -164 58 -205 72 -487 172
-1126 444 -1730 738 -107 52 -215 104 -240 115 -101 46 -302 142 -725 347
-320 155 -664 290 -887 350 -32 8 -82 21 -110 29 -256 68 -387 79 -938 73
-500 -5 -502 -5 -675 -63 -168 -56 -321 -138 -508 -272 -371 -265 -581 -495
-732 -801 -115 -231 -133 -328 -142 -728 l-6 -301 -120 -56 c-307 -144 -524
-293 -906 -622 -380 -328 -609 -598 -759 -899 -80 -161 -147 -409 -171 -637
-6 -54 -11 -303 -11 -557 0 -529 8 -638 64 -886 8 -38 24 -101 35 -139 l19
-69 -82 -101 c-216 -267 -333 -526 -396 -883 -17 -97 -19 -125 -9 -214 5 -56
12 -106 15 -111 3 -4 11 -65 19 -135 8 -71 21 -186 29 -258 25 -213 37 -334
45 -450 5 -60 12 -132 15 -160 19 -134 38 -254 47 -295 6 -25 14 -63 19 -85
21 -95 42 -182 50 -210 5 -16 16 -57 25 -90 32 -117 89 -292 143 -440 30 -82
66 -184 82 -225 30 -83 160 -391 253 -600 76 -172 268 -564 342 -700 350 -640
793 -1225 1394 -1842 l124 -127 -31 -48 c-122 -191 -213 -445 -264 -733 -18
-104 -18 -988 0 -1075 7 -33 17 -91 22 -130 18 -127 60 -341 80 -410 5 -16 17
-59 26 -95 34 -138 42 -168 73 -270 130 -426 308 -869 506 -1255 359 -701 880
-1365 1700 -2166 294 -287 485 -458 825 -740 302 -250 697 -564 970 -772 102
-77 230 -175 285 -217 535 -410 1276 -950 1750 -1277 477 -329 1206 -777 1620
-998 50 -26 95 -51 100 -55 9 -7 157 -86 550 -292 397 -209 1026 -513 1520
-735 116 -52 224 -100 240 -108 17 -7 73 -32 125 -55 52 -23 123 -55 158 -71
35 -16 65 -29 67 -29 3 0 28 -11 57 -24 29 -13 121 -53 203 -89 267 -115 1183
-515 1440 -629 138 -61 315 -139 395 -173 80 -35 177 -77 215 -95 144 -65 556
-239 710 -300 88 -34 174 -69 192 -77 18 -7 67 -26 110 -42 110 -40 404 -151
428 -161 11 -5 83 -32 160 -61 77 -28 149 -55 160 -60 11 -5 88 -33 170 -64
83 -31 166 -62 185 -70 19 -7 67 -25 105 -39 39 -13 124 -45 190 -70 66 -25
165 -61 220 -81 55 -20 150 -55 210 -77 61 -22 164 -59 230 -83 112 -40 188
-68 440 -160 55 -20 111 -41 125 -45 14 -4 77 -27 140 -50 63 -23 189 -68 280
-100 91 -32 192 -68 225 -80 33 -11 101 -35 150 -51 50 -17 99 -35 110 -39 11
-5 47 -18 80 -29 33 -11 116 -41 185 -66 69 -25 152 -55 185 -66 33 -11 68
-24 77 -30 10 -5 26 -9 36 -9 10 0 22 -4 27 -9 6 -4 35 -16 65 -25 30 -9 64
-21 75 -26 11 -5 92 -34 180 -64 88 -30 198 -68 245 -84 216 -78 380 -135 435
-153 33 -11 69 -24 80 -29 11 -4 72 -27 135 -50 261 -96 770 -300 925 -370 22
-10 94 -40 160 -68 66 -27 257 -109 424 -181 167 -73 471 -202 675 -286 420
-173 449 -186 746 -318 118 -52 292 -129 385 -170 246 -109 371 -166 665 -302
80 -37 231 -105 335 -152 105 -47 214 -96 244 -109 29 -14 173 -76 320 -138
260 -110 376 -159 791 -329 113 -47 320 -133 460 -192 140 -58 311 -129 380
-157 69 -27 139 -56 155 -63 136 -60 458 -187 835 -331 96 -36 189 -72 205
-79 17 -8 71 -30 120 -50 407 -166 1274 -580 1680 -803 99 -54 261 -143 360
-197 172 -94 964 -540 1071 -602 27 -17 71 -42 97 -56 181 -101 631 -371 967
-580 586 -364 1276 -832 1830 -1241 385 -283 810 -613 810 -627 0 -11 -181
-359 -343 -659 -2333 -4328 -5541 -8165 -9402 -11245 -2379 -1898 -4958 -3479
-7725 -4737 -5359 -2437 -11267 -3542 -17225 -3222 -5520 296 -10824 1801
-15655 4442 -6100 3334 -11157 8366 -14513 14442 -446 809 -943 1801 -1318
2635 -135 300 -319 725 -319 736 0 5 84 -40 188 -100 103 -60 275 -156 382
-213 365 -197 655 -355 735 -400 44 -24 139 -75 210 -113 72 -38 216 -115 320
-173 105 -58 209 -115 232 -128 24 -13 80 -44 125 -70 386 -218 537 -304 623
-354 55 -31 163 -92 240 -135 77 -43 284 -160 460 -260 176 -101 403 -230 505
-287 102 -57 304 -174 450 -260 601 -352 1085 -622 1755 -976 1517 -803 2754
-1377 3805 -1765 52 -19 158 -59 235 -87 77 -29 235 -87 350 -130 655 -242
3036 -1043 3660 -1230 204 -61 442 -133 530 -160 576 -175 1058 -300 1451
-375 734 -141 1085 -192 1699 -250 581 -55 1245 -39 1755 41 424 67 647 121
1097 268 631 206 855 299 1389 578 472 247 921 586 1176 888 49 58 108 128
132 155 105 123 256 373 340 561 49 112 135 359 166 479 26 102 47 224 60 349
6 55 12 101 14 103 2 2 111 -16 242 -41 528 -100 855 -145 1389 -192 302 -27
840 -23 1260 10 182 15 395 35 475 46 215 31 585 107 870 180 63 16 165 41
225 55 61 15 193 51 295 81 398 118 575 174 720 229 63 24 160 60 215 80 373
138 648 264 938 431 32 19 60 34 63 34 10 0 215 128 319 199 225 154 324 238
550 465 446 450 733 922 859 1413 52 202 94 511 99 730 2 68 7 127 12 131 6 5
44 19 85 31 275 83 606 229 853 375 43 25 80 46 83 46 13 0 203 134 308 219
241 194 420 374 580 586 306 405 451 757 536 1300 76 482 39 1426 -76 1933
-29 129 -125 433 -176 556 -15 38 -28 72 -28 76 0 5 44 32 98 60 247 132 410
267 596 495 162 198 272 427 352 735 52 203 64 566 28 870 -58 488 -170 783
-400 1055 -185 218 -442 381 -1039 659 -293 136 -719 280 -1230 416 -16 5 -70
20 -120 35 -49 14 -137 40 -195 56 -58 17 -161 48 -230 69 -69 21 -165 50
-215 64 -49 15 -108 33 -130 40 -22 8 -80 26 -130 41 -88 26 -363 112 -520
163 -44 14 -179 59 -300 99 -121 41 -251 85 -290 98 -94 31 -387 135 -510 180
-55 20 -129 47 -165 60 -308 109 -644 248 -1100 455 -63 29 -153 69 -200 90
-134 59 -295 137 -735 355 -468 233 -628 316 -770 401 -55 34 -185 112 -290
174 -396 235 -766 474 -1055 680 -211 150 -629 470 -630 481 0 8 66 45 187
104 78 38 92 49 90 67 -2 18 13 30 88 68 346 179 814 562 1111 910 150 175
169 201 266 346 146 219 251 434 336 689 77 233 102 381 102 615 0 168 -12
271 -51 424 -16 66 -38 187 -49 270 -39 315 -103 525 -244 806 -221 440 -507
789 -902 1101 -192 152 -477 303 -769 409 -151 55 -530 158 -720 195 -38 8
-113 23 -165 34 -52 11 -174 34 -270 50 -96 17 -251 44 -345 61 -93 16 -228
39 -300 50 -71 11 -155 25 -185 30 -30 5 -102 16 -160 25 -58 8 -132 19 -165
25 -33 5 -141 21 -240 35 -99 13 -209 29 -245 34 -36 6 -119 17 -185 26 -66 9
-149 20 -185 25 -36 5 -105 14 -155 20 -174 22 -718 106 -880 136 -16 3 -95
16 -175 30 -80 14 -169 29 -197 35 -29 5 -77 13 -105 18 -29 5 -93 17 -143 26
-49 9 -137 24 -195 35 -58 10 -143 25 -190 34 -47 8 -161 29 -255 45 -205 37
-248 45 -390 72 -60 12 -128 25 -150 29 -719 136 -1313 282 -1870 458 -543
173 -1263 452 -1900 737 -27 12 -84 37 -125 55 -41 18 -111 49 -155 70 -44 21
-102 48 -130 60 -27 12 -79 36 -115 52 -36 17 -229 112 -430 213 -317 159
-432 219 -755 395 -33 18 -80 45 -105 60 -25 15 -126 74 -225 130 -157 91
-365 215 -475 285 -19 13 -69 44 -110 70 -254 161 -1171 806 -1528 1073 -31
24 -68 51 -82 60 -14 9 -68 49 -120 87 -51 39 -204 152 -339 253 -256 190
-299 223 -596 450 -99 75 -210 160 -247 187 -100 75 -372 282 -507 387 -65 51
-172 134 -236 183 -176 135 -947 754 -1105 886 -25 21 -117 97 -205 170 -436
358 -760 637 -1029 887 -32 30 -84 77 -115 105 -63 57 -232 213 -461 427 -85
80 -177 165 -205 190 -27 25 -102 95 -165 156 -63 61 -151 144 -195 184 -214
196 -1544 1543 -1905 1930 -74 80 -167 179 -206 220 -38 41 -99 106 -135 145
-35 38 -71 76 -80 85 -9 8 -63 67 -120 130 -57 63 -133 147 -170 185 -36 39
-84 90 -105 115 -21 25 -66 74 -100 110 -212 227 -270 291 -470 520 -111 127
-143 163 -249 280 -87 96 -119 131 -239 270 -138 158 -221 252 -318 360 -43
47 -78 89 -78 94 0 11 280 481 468 786 1335 2159 2794 4057 4566 5940 277 294
1069 1089 1361 1366 2493 2361 5199 4303 8210 5894 294 155 1111 563 1410 704
4326 2040 8938 3203 13730 3460 938 51 1915 67 2805 46z m10098 -17977 c37
-20 81 -47 98 -60 17 -13 36 -23 42 -23 6 0 12 -4 14 -8 2 -5 30 -28 63 -52
33 -24 62 -46 65 -49 3 -4 23 -19 45 -36 22 -16 42 -31 45 -35 3 -3 23 -18 45
-35 22 -16 45 -34 51 -40 6 -5 28 -23 50 -40 40 -31 1234 -1221 1234 -1231 0
-10 569 -574 579 -574 6 0 11 -6 11 -13 0 -7 11 -21 25 -31 14 -11 72 -65 129
-120 57 -56 112 -108 122 -117 11 -9 26 -25 35 -35 9 -10 85 -85 170 -166 85
-80 207 -197 271 -260 64 -62 156 -149 204 -193 47 -44 106 -98 129 -120 71
-66 161 -145 191 -168 16 -12 46 -39 68 -60 21 -20 62 -54 90 -74 28 -21 53
-40 56 -44 3 -3 26 -21 51 -40 126 -93 164 -123 167 -131 2 -4 10 -8 17 -8 7
0 15 -4 17 -8 2 -5 30 -28 63 -52 33 -24 62 -46 65 -50 3 -3 35 -27 72 -53 36
-26 73 -54 82 -62 8 -8 19 -15 25 -15 6 0 11 -3 11 -7 0 -5 18 -17 40 -27 22
-11 40 -23 40 -28 0 -4 6 -8 14 -8 8 0 16 -4 18 -8 4 -9 133 -102 142 -102 3
0 37 -22 75 -50 38 -27 71 -50 74 -50 2 0 62 -38 133 -85 71 -47 141 -91 157
-98 15 -6 27 -15 27 -19 0 -5 7 -8 15 -8 8 0 15 -4 15 -9 0 -5 10 -13 23 -17
12 -4 44 -22 72 -40 27 -19 55 -34 62 -34 7 0 13 -4 13 -10 0 -5 7 -10 15 -10
8 0 15 -4 15 -8 0 -4 12 -13 28 -19 29 -13 72 -38 118 -68 15 -10 62 -36 103
-58 42 -22 87 -47 101 -57 14 -9 32 -20 40 -24 8 -3 38 -20 65 -36 28 -16 67
-37 88 -47 20 -10 37 -21 37 -25 0 -5 9 -8 19 -8 11 0 22 -4 25 -9 3 -4 38
-25 78 -46 66 -34 116 -61 216 -117 18 -10 39 -18 46 -18 8 0 16 -4 18 -9 3
-7 240 -126 398 -198 36 -17 100 -46 143 -67 43 -20 82 -36 88 -36 5 0 17 -4
27 -9 23 -12 132 -62 157 -71 115 -45 168 -66 213 -86 29 -13 59 -24 67 -24 7
0 17 -4 20 -10 3 -5 14 -10 24 -10 9 0 36 -9 60 -20 23 -12 81 -34 129 -50
103 -34 150 -50 177 -61 22 -8 107 -39 250 -89 50 -18 104 -36 120 -40 17 -4
50 -15 75 -25 25 -9 57 -19 73 -22 15 -3 30 -9 33 -14 3 -5 13 -9 22 -9 9 0
46 -11 82 -24 36 -13 85 -29 110 -36 25 -7 54 -16 65 -21 11 -5 108 -38 216
-73 107 -36 206 -69 220 -74 13 -6 44 -15 69 -22 25 -7 54 -16 65 -20 32 -13
427 -142 460 -150 17 -5 55 -17 85 -28 57 -21 347 -113 555 -178 66 -20 152
-47 190 -59 163 -52 437 -136 505 -155 25 -6 53 -16 62 -21 10 -5 27 -9 39 -9
11 0 29 -5 40 -11 11 -5 52 -19 92 -30 40 -11 95 -26 122 -35 28 -8 82 -23
122 -33 39 -11 76 -22 81 -25 5 -3 62 -19 127 -36 65 -16 132 -34 149 -39 59
-18 768 -192 946 -232 25 -5 122 -28 215 -50 94 -23 191 -44 216 -49 25 -5 64
-13 85 -18 21 -6 66 -16 99 -22 33 -6 78 -16 100 -22 22 -5 58 -13 80 -17 22
-5 144 -30 270 -56 127 -26 241 -50 255 -52 14 -3 70 -14 125 -25 55 -11 123
-24 150 -29 28 -4 84 -16 125 -24 77 -17 106 -22 250 -49 47 -8 123 -23 170
-31 47 -9 132 -25 190 -35 58 -11 141 -26 185 -34 44 -8 145 -27 225 -41 80
-14 206 -37 280 -51 135 -24 162 -29 360 -58 58 -9 123 -20 145 -26 22 -5 117
-21 210 -35 94 -14 193 -29 220 -35 28 -5 97 -16 155 -25 58 -9 124 -21 147
-26 23 -5 61 -9 84 -9 23 0 58 -4 78 -9 20 -5 68 -14 106 -20 102 -16 255 -39
295 -46 19 -3 64 -10 100 -15 36 -5 94 -13 130 -19 182 -28 270 -42 425 -65
94 -14 195 -30 224 -36 30 -6 91 -14 135 -20 45 -5 126 -16 181 -25 55 -9 134
-20 175 -26 41 -5 107 -14 145 -19 87 -13 186 -26 290 -40 44 -5 109 -14 145
-19 36 -5 124 -16 195 -25 72 -9 149 -21 173 -26 23 -6 58 -10 76 -10 19 0 56
-4 83 -9 26 -6 84 -15 128 -20 44 -6 166 -22 270 -36 105 -14 242 -32 305 -40
63 -9 198 -26 300 -40 185 -25 372 -49 505 -65 77 -9 192 -25 300 -40 39 -5
111 -14 160 -20 50 -6 158 -20 240 -31 83 -12 188 -25 235 -29 92 -9 313 -37
345 -45 11 -2 81 -11 155 -20 155 -18 217 -26 425 -54 83 -11 209 -27 280 -35
72 -9 149 -21 173 -26 23 -6 56 -10 73 -10 18 0 59 -4 93 -10 33 -5 154 -22
267 -36 l206 -27 116 -466 c631 -2530 971 -4959 1067 -7616 27 -745 22 -1958
-10 -2715 -201 -4652 -1219 -9014 -3087 -13227 -177 -400 -167 -383 -218 -336
-11 10 -38 31 -60 47 -22 17 -42 33 -45 36 -3 3 -30 23 -60 45 -30 22 -57 42
-60 46 -3 3 -39 30 -80 59 -41 29 -76 57 -78 62 -2 4 -8 8 -13 8 -6 0 -17 6
-25 13 -8 6 -20 17 -27 22 -7 6 -37 28 -67 50 -30 22 -56 43 -58 47 -2 5 -9 8
-15 8 -7 0 -24 11 -39 25 -15 14 -30 25 -33 25 -6 0 -20 11 -50 38 -7 6 -18
12 -23 12 -6 0 -12 4 -14 9 -1 4 -97 74 -213 154 -115 81 -215 151 -222 157
-7 5 -17 10 -23 10 -5 0 -10 4 -10 8 0 4 -15 16 -32 27 -18 10 -35 21 -38 25
-11 13 -111 80 -120 80 -6 0 -10 5 -10 10 0 6 -5 10 -11 10 -6 0 -42 23 -80
50 -38 27 -73 50 -79 50 -5 0 -10 5 -10 10 0 6 -4 10 -9 10 -4 0 -72 43 -150
95 -79 52 -145 95 -148 95 -2 0 -42 27 -89 60 -46 33 -86 60 -89 60 -3 0 -36
20 -75 45 -39 25 -74 45 -79 45 -4 0 -20 11 -35 25 -15 14 -29 25 -31 25 -3 0
-29 16 -59 35 -30 19 -60 35 -66 35 -5 0 -10 4 -10 9 0 5 -8 12 -17 15 -33 13
-63 31 -63 38 0 5 -5 8 -12 8 -6 0 -25 10 -42 23 -17 13 -38 26 -46 30 -8 4
-33 18 -55 32 -22 14 -47 28 -55 31 -8 4 -36 22 -63 41 -26 18 -50 33 -53 33
-3 0 -30 16 -60 35 -30 19 -56 35 -59 35 -3 0 -29 16 -59 35 -30 19 -58 35
-62 35 -4 0 -21 10 -38 23 -17 12 -52 33 -79 46 -26 14 -52 30 -58 38 -6 7
-15 13 -20 13 -5 0 -32 15 -61 33 -29 18 -69 41 -88 51 -19 9 -51 26 -70 38
-33 19 -99 57 -145 82 -11 6 -22 13 -25 16 -3 3 -14 10 -25 16 -92 50 -198
110 -240 135 -16 10 -57 32 -90 50 -33 17 -62 34 -65 38 -5 6 -70 42 -185 100
-38 20 -72 38 -75 42 -3 3 -21 13 -40 23 -66 33 -165 88 -170 95 -3 4 -21 15
-40 24 -19 10 -66 35 -105 56 -38 22 -90 50 -115 64 -116 62 -250 133 -295
155 -27 14 -52 28 -55 32 -6 6 -509 256 -695 345 -294 140 -391 185 -399 185
-3 0 -25 9 -49 19 -99 45 -158 71 -162 71 -5 0 -73 30 -192 86 -40 19 -76 34
-81 34 -5 0 -32 11 -60 25 -29 14 -55 25 -59 25 -11 0 -336 124 -418 160 -22
9 -62 25 -90 35 -27 9 -68 25 -90 35 -22 9 -62 25 -90 35 -27 10 -54 22 -60
27 -5 4 -19 8 -31 8 -13 0 -25 4 -28 9 -3 4 -27 16 -53 25 -26 10 -72 29 -101
42 -29 13 -57 24 -62 24 -6 0 -18 4 -28 9 -44 23 -134 61 -145 61 -7 0 -17 4
-22 8 -8 8 -57 28 -170 72 -48 19 -133 53 -165 67 -80 34 -96 41 -120 51 -14
6 -51 22 -82 36 -31 14 -59 26 -62 26 -3 0 -40 16 -82 35 -41 19 -80 35 -85
35 -5 0 -17 4 -27 9 -53 26 -134 61 -142 61 -6 0 -29 9 -53 20 -23 10 -77 33
-119 49 -73 29 -105 43 -226 97 -29 13 -59 24 -67 24 -7 0 -17 5 -20 10 -3 6
-13 10 -20 10 -14 0 -57 18 -181 76 -28 13 -54 24 -58 24 -4 0 -50 20 -103 45
-52 25 -98 45 -102 45 -4 0 -25 8 -47 19 -21 10 -61 29 -89 41 -27 12 -68 30
-90 40 -22 9 -56 24 -75 33 -106 46 -168 75 -287 133 -72 35 -136 64 -141 64
-6 0 -32 11 -59 25 -26 13 -79 38 -118 55 -72 32 -171 78 -238 111 -22 11 -43
19 -48 19 -9 0 -71 27 -196 86 -39 19 -76 34 -82 34 -5 0 -22 6 -38 14 -15 8
-39 19 -53 24 -14 6 -60 26 -102 46 -43 20 -80 36 -84 36 -3 0 -31 12 -62 26
-31 15 -66 30 -77 34 -11 5 -40 17 -65 28 -25 11 -92 39 -150 62 -58 23 -109
47 -115 51 -5 5 -15 9 -23 9 -7 0 -39 12 -70 26 -31 14 -67 30 -79 35 -28 11
-57 23 -108 44 -22 10 -50 21 -62 26 -13 5 -33 13 -45 18 -13 5 -39 16 -58 24
-19 8 -57 24 -83 36 -26 12 -67 29 -90 37 -23 9 -64 26 -92 39 -82 38 -170 76
-235 102 -14 6 -52 23 -85 38 -33 15 -71 32 -85 37 -14 6 -38 16 -55 23 -16 7
-41 17 -55 22 -14 6 -50 22 -80 37 -30 14 -61 26 -68 26 -6 0 -12 5 -12 10 0
6 -7 10 -15 10 -8 0 -34 11 -57 24 -24 13 -61 29 -83 35 -22 7 -49 16 -60 21
-45 19 -92 38 -125 50 -19 7 -84 34 -145 60 -60 26 -137 58 -170 70 -33 12
-73 28 -90 35 -16 6 -57 22 -90 34 -33 13 -71 27 -85 33 -14 5 -45 17 -70 25
-46 15 -169 59 -205 73 -11 5 -51 19 -90 33 -103 35 -162 56 -240 84 -133 48
-350 124 -400 140 -27 8 -63 21 -80 28 -16 7 -46 18 -65 24 -43 13 -126 42
-250 87 -52 19 -120 43 -150 54 -30 10 -113 39 -185 65 -71 26 -173 62 -225
81 -52 18 -147 52 -210 75 -63 22 -124 43 -135 46 -20 5 -33 9 -90 33 -16 7
-68 25 -115 41 -47 15 -130 44 -185 65 -55 20 -147 53 -205 74 -58 21 -136 50
-175 64 -38 15 -108 40 -155 56 -126 43 -201 70 -235 85 -16 7 -59 23 -95 35
-36 12 -74 26 -85 31 -18 8 -59 23 -260 94 -65 23 -82 29 -130 48 -22 9 -96
36 -165 62 -69 26 -152 57 -185 70 -33 13 -91 35 -130 48 -164 59 -192 69
-220 82 -16 7 -59 23 -95 35 -36 12 -73 27 -84 32 -10 6 -55 24 -100 40 -115
43 -251 93 -321 118 -33 12 -69 25 -80 30 -11 5 -78 32 -150 60 -71 29 -141
57 -155 62 -14 6 -38 16 -55 23 -51 22 -78 32 -122 49 -40 15 -71 28 -180 77
-27 12 -68 30 -93 39 -25 9 -72 29 -105 45 -124 58 -187 85 -193 85 -4 0 -29
11 -57 24 -27 13 -68 32 -90 41 -22 9 -58 25 -80 35 -22 10 -75 35 -118 54
-43 20 -80 36 -83 36 -2 0 -38 16 -80 35 -41 19 -78 35 -80 35 -3 0 -31 12
-62 26 -31 15 -66 30 -77 34 -24 9 -71 30 -140 60 -27 12 -63 28 -80 35 -16 7
-57 25 -90 40 -129 58 -151 67 -170 75 -11 4 -42 18 -70 30 -27 12 -66 29 -85
37 -19 8 -48 21 -65 28 -16 8 -46 20 -65 28 -19 8 -60 26 -90 40 -30 14 -77
35 -105 47 -27 12 -68 31 -89 41 -22 11 -43 19 -48 19 -7 0 -26 8 -171 74 -32
14 -60 26 -63 26 -3 0 -48 20 -101 45 -52 25 -99 45 -103 45 -5 0 -32 12 -62
26 -29 15 -62 30 -73 34 -44 17 -165 71 -250 110 -33 15 -82 38 -110 50 -27
11 -81 36 -120 55 -38 18 -88 41 -110 50 -66 28 -178 79 -395 182 -197 93
-805 398 -808 405 -2 5 -12 8 -22 8 -10 0 -20 3 -22 8 -3 7 -52 33 -303 162
-111 58 -175 92 -265 143 -19 11 -73 40 -119 63 -46 24 -89 48 -95 53 -9 7
-46 28 -151 85 -11 6 -22 13 -25 16 -3 3 -14 10 -25 16 -56 30 -91 50 -95 54
-8 8 -43 28 -80 47 -19 9 -37 19 -40 22 -9 10 -45 31 -62 37 -10 4 -18 10 -18
15 0 5 -5 9 -10 9 -6 0 -60 32 -121 70 -60 39 -114 70 -118 70 -5 0 -11 4 -13
8 -4 11 -135 92 -148 92 -5 0 -10 5 -10 10 0 6 -5 10 -12 10 -6 0 -26 11 -44
25 -18 14 -37 25 -43 25 -6 0 -11 5 -11 10 0 6 -5 10 -10 10 -6 0 -16 5 -23
10 -28 24 -159 110 -168 110 -5 0 -9 5 -9 10 0 6 -4 10 -10 10 -5 0 -64 38
-130 85 -66 47 -125 85 -130 85 -6 0 -10 4 -10 8 0 5 -16 17 -35 28 -19 10
-35 22 -35 26 0 5 -7 8 -15 8 -8 0 -15 5 -15 10 0 6 -6 10 -13 10 -8 0 -24 11
-37 25 -13 14 -29 25 -37 25 -7 0 -13 4 -13 8 0 4 -15 16 -32 27 -18 10 -35
21 -38 25 -3 4 -68 51 -145 105 -77 54 -141 102 -143 106 -2 5 -8 9 -13 9 -9
0 -17 5 -52 35 -7 6 -52 39 -102 74 -49 35 -91 68 -93 72 -2 5 -8 9 -13 9 -6
0 -15 5 -22 10 -39 33 -61 50 -92 71 -19 13 -35 27 -35 32 0 4 -6 7 -14 7 -8
0 -16 3 -18 8 -1 4 -37 32 -78 61 -41 30 -76 58 -78 63 -2 4 -10 8 -17 8 -7 0
-15 4 -17 8 -3 9 -76 65 -182 141 -34 24 -62 48 -64 52 -2 5 -10 9 -17 9 -7 0
-15 4 -17 8 -1 5 -30 28 -63 52 -33 24 -65 49 -71 54 -6 6 -27 22 -47 36 -20
14 -37 28 -37 33 0 4 -6 7 -14 7 -8 0 -16 4 -18 8 -1 5 -37 33 -78 63 -41 30
-84 62 -95 71 -11 9 -30 26 -43 36 -12 11 -38 30 -57 43 -19 13 -35 27 -35 32
0 4 -6 7 -14 7 -8 0 -16 3 -18 8 -1 4 -34 32 -73 62 -38 30 -72 57 -75 60 -3
3 -23 19 -45 36 -22 16 -45 34 -51 39 -25 22 -61 52 -99 80 -22 16 -45 34 -51
40 -6 5 -28 24 -49 40 -62 48 -110 89 -113 98 -2 4 -8 7 -13 7 -5 0 -19 9 -31
19 -13 11 -34 29 -48 41 -14 12 -40 34 -59 48 -19 15 -42 34 -51 42 -8 8 -42
37 -75 65 -33 27 -78 65 -100 85 -23 19 -55 47 -73 61 -18 15 -52 44 -75 65
-23 22 -60 54 -82 73 -169 143 -725 696 -874 870 -11 12 -51 57 -88 99 -70 77
-84 94 -117 134 -34 41 -121 143 -126 148 -4 3 -19 23 -35 45 -17 22 -32 42
-35 45 -22 21 -224 301 -296 410 -118 179 -114 172 -120 193 -4 9 -9 17 -13
17 -3 0 -12 15 -20 33 -8 17 -25 50 -39 71 -13 22 -34 58 -46 80 -12 23 -27
50 -34 61 -11 19 -105 219 -122 260 -5 11 -22 49 -38 85 -37 82 -95 222 -121
292 -11 29 -31 85 -46 123 -30 78 -106 307 -124 373 -6 23 -16 61 -22 85 -6
23 -17 62 -24 87 -37 127 -93 402 -104 511 -9 88 0 175 28 255 26 71 45 114
51 114 3 0 23 -17 46 -38 22 -20 69 -62 104 -92 76 -66 80 -70 160 -140 34
-30 76 -66 93 -80 17 -14 40 -34 51 -45 12 -11 73 -65 136 -119 63 -54 127
-111 141 -125 14 -14 46 -42 70 -63 24 -20 60 -51 79 -68 19 -17 52 -46 74
-63 34 -28 92 -79 162 -142 23 -21 28 -25 129 -110 33 -27 72 -61 86 -75 15
-14 42 -37 60 -52 19 -14 45 -36 59 -48 14 -12 47 -41 74 -64 26 -22 61 -53
76 -67 16 -14 45 -39 66 -55 20 -16 47 -38 60 -49 12 -11 39 -33 59 -50 21
-16 47 -38 59 -49 11 -10 43 -37 70 -60 26 -22 58 -49 70 -59 11 -10 36 -31
55 -45 36 -28 99 -80 117 -97 6 -5 28 -23 49 -40 21 -16 43 -35 49 -41 6 -6
54 -46 106 -89 52 -44 100 -84 106 -90 6 -5 28 -23 48 -40 21 -16 47 -37 58
-47 10 -9 37 -31 60 -50 23 -18 46 -37 52 -43 6 -5 27 -22 46 -37 19 -15 48
-38 63 -52 16 -13 47 -40 69 -58 23 -18 46 -38 52 -43 6 -6 20 -17 32 -25 19
-14 88 -71 153 -128 14 -13 42 -35 61 -50 19 -15 40 -31 46 -37 6 -5 30 -26
54 -45 24 -19 48 -40 54 -45 6 -6 20 -17 32 -25 11 -8 44 -35 73 -60 72 -61
83 -70 126 -105 20 -16 51 -42 68 -57 34 -29 148 -89 207 -108 19 -6 127 -14
240 -17 227 -6 337 7 415 51 80 45 90 52 138 96 70 65 111 125 141 208 25 72
26 79 26 320 0 274 -8 323 -71 426 -33 54 -140 165 -224 231 -27 22 -55 45
-61 50 -6 6 -28 24 -49 40 -39 30 -101 82 -121 100 -6 6 -29 25 -52 43 -23 19
-50 41 -60 50 -11 10 -35 29 -53 44 -19 14 -45 36 -59 48 -47 40 -65 55 -115
95 -27 22 -55 45 -61 50 -6 6 -28 24 -49 40 -21 17 -48 39 -61 50 -26 24 -31
27 -154 129 -120 99 -189 157 -204 171 -6 6 -29 24 -51 40 -22 17 -53 42 -70
57 -65 58 -84 75 -116 98 -18 14 -44 35 -58 48 -14 13 -40 35 -59 50 -19 15
-44 35 -56 46 -11 10 -41 35 -66 55 -25 20 -58 48 -75 63 -16 14 -40 35 -52
45 -12 10 -32 27 -45 38 -12 11 -50 42 -83 69 -33 28 -65 55 -71 61 -6 5 -30
26 -54 45 -24 19 -55 46 -70 60 -33 30 -55 49 -140 119 -54 45 -183 158 -224
196 -6 6 -21 17 -32 25 -12 8 -46 38 -76 65 -30 28 -81 73 -113 100 -32 28
-68 59 -80 70 -13 11 -49 43 -81 70 -32 28 -69 61 -83 73 -27 25 -127 113
-165 145 -23 20 -133 116 -150 132 -6 6 -40 35 -76 65 -36 30 -74 64 -86 75
-34 32 -167 151 -194 174 -88 74 -125 112 -156 157 -36 56 -136 151 -181 175
-15 7 -30 16 -33 19 -3 3 -16 11 -30 18 -25 13 -45 31 -265 235 -162 152 -647
637 -715 716 -30 35 -72 82 -94 105 -21 22 -72 82 -113 131 -41 50 -85 101
-97 115 -12 14 -57 70 -100 125 -42 55 -83 107 -89 115 -7 9 -25 33 -42 55
-16 22 -37 49 -47 59 -10 11 -20 28 -24 38 -3 10 -10 18 -15 18 -5 0 -9 7 -9
15 0 8 -3 15 -8 15 -4 0 -16 16 -26 35 -11 19 -23 35 -28 35 -4 0 -8 4 -8 10
0 5 -20 38 -45 73 -25 36 -45 68 -45 72 0 3 -11 21 -25 39 -14 18 -25 36 -25
40 0 4 -16 32 -35 62 -19 30 -35 57 -35 60 0 3 -9 18 -20 34 -30 42 -78 134
-201 380 -106 214 -137 280 -172 360 -8 19 -29 65 -46 103 -17 37 -31 73 -31
80 0 7 -4 17 -9 22 -5 6 -23 45 -40 87 -17 42 -40 98 -52 125 -11 26 -25 57
-29 68 -4 11 -18 45 -30 75 -32 77 -66 170 -101 275 -17 50 -34 99 -38 110 -9
22 -19 56 -46 150 -9 33 -21 71 -25 85 -4 14 -13 45 -18 70 -6 25 -17 74 -26
110 -35 152 -49 250 -47 330 3 114 57 341 98 415 7 13 25 -2 89 -72 133 -146
574 -581 908 -894 49 -46 104 -97 121 -114 17 -16 50 -46 72 -65 22 -19 67
-58 100 -87 33 -29 76 -67 95 -85 45 -41 95 -84 318 -276 96 -82 189 -163 207
-178 32 -30 62 -55 122 -102 19 -15 44 -36 57 -47 12 -12 44 -39 70 -60 26
-22 57 -49 70 -60 12 -11 31 -27 41 -35 10 -8 47 -39 83 -69 36 -30 88 -75
116 -100 29 -25 69 -59 89 -76 43 -33 164 -134 181 -150 6 -5 28 -23 48 -40
21 -16 47 -38 59 -49 12 -10 42 -35 67 -55 25 -20 50 -40 56 -46 6 -5 26 -22
45 -37 19 -14 45 -36 59 -48 14 -12 40 -34 59 -48 37 -29 99 -80 117 -97 6 -6
34 -28 62 -50 29 -21 52 -43 52 -47 0 -4 5 -8 10 -8 6 0 21 -9 33 -21 12 -12
45 -38 72 -59 28 -21 59 -46 70 -56 11 -11 51 -44 90 -74 38 -30 78 -62 89
-70 10 -8 26 -22 35 -30 9 -8 35 -28 56 -45 22 -16 45 -34 51 -40 6 -5 29 -23
50 -40 58 -46 109 -89 112 -97 2 -5 8 -8 14 -8 5 0 15 -6 22 -12 7 -7 32 -29
56 -48 24 -19 49 -41 56 -47 7 -7 17 -13 22 -13 6 0 12 -3 14 -8 4 -9 112 -99
188 -157 29 -22 57 -44 64 -50 6 -5 32 -27 58 -48 26 -21 53 -43 60 -50 7 -7
31 -25 53 -42 22 -16 45 -34 51 -40 6 -5 26 -22 45 -37 19 -14 44 -35 55 -45
103 -87 130 -110 148 -122 12 -8 50 -39 86 -69 78 -65 84 -69 135 -107 22 -17
45 -34 51 -40 42 -37 65 -55 73 -55 5 0 11 -4 13 -8 3 -7 68 -58 151 -119 17
-12 33 -26 36 -31 3 -4 27 -23 53 -40 25 -18 52 -38 60 -45 7 -7 38 -30 68
-52 30 -22 64 -48 75 -58 11 -10 42 -32 70 -50 27 -17 52 -34 55 -37 5 -5 27
-16 90 -43 69 -30 127 -37 347 -37 241 0 297 7 380 50 159 83 268 226 292 387
23 150 12 478 -19 558 -21 55 -46 105 -52 105 -5 0 -8 5 -8 10 0 20 -117 141
-161 167 -16 10 -29 21 -29 25 0 4 -7 8 -15 8 -9 0 -18 7 -21 15 -4 8 -12 15
-20 15 -8 0 -14 3 -14 8 0 4 -21 21 -45 37 -25 17 -45 33 -45 38 0 4 -6 7 -14
7 -8 0 -16 4 -18 8 -1 5 -30 28 -62 52 -33 24 -67 49 -75 56 -9 7 -43 35 -76
61 -33 26 -61 51 -63 56 -2 4 -8 7 -14 7 -5 0 -15 6 -22 13 -21 19 -58 50
-101 81 -22 17 -42 32 -45 36 -3 3 -21 17 -40 32 -19 15 -47 37 -62 50 -14 13
-38 32 -53 42 -14 11 -36 28 -48 39 -12 10 -37 31 -56 45 -19 15 -42 34 -51
42 -8 8 -31 27 -50 41 -19 15 -45 36 -57 48 -12 12 -25 21 -28 21 -2 0 -15 9
-27 19 -13 11 -34 29 -48 41 -14 12 -40 34 -59 48 -19 15 -42 34 -50 42 -9 8
-31 26 -48 38 -18 13 -42 31 -55 42 -26 22 -151 124 -194 158 -16 13 -44 35
-63 50 -19 15 -50 41 -71 57 -20 17 -53 44 -74 60 -66 52 -166 133 -179 147
-8 7 -30 24 -50 38 -20 14 -37 28 -37 33 0 4 -5 7 -10 7 -6 0 -25 13 -43 30
-17 16 -66 57 -107 90 -101 82 -99 81 -145 115 -40 30 -58 45 -105 85 -14 12
-40 34 -59 48 -18 15 -43 35 -55 45 -11 10 -36 31 -55 45 -19 15 -42 34 -51
43 -9 8 -25 22 -36 30 -18 12 -46 36 -148 122 -11 10 -36 31 -55 45 -18 15
-42 34 -53 44 -10 9 -36 30 -58 48 -21 17 -51 43 -67 56 -15 14 -46 39 -67 57
-22 18 -46 39 -55 47 -9 8 -32 27 -51 42 -19 15 -48 38 -65 53 -29 25 -93 80
-145 125 -14 12 -40 34 -59 48 -19 15 -49 41 -67 57 -18 17 -41 37 -51 45
-100 82 -129 106 -139 115 -9 8 -61 54 -158 138 -12 10 -36 31 -55 45 -19 15
-49 41 -67 57 -18 17 -53 47 -76 67 -24 21 -59 51 -78 68 -19 17 -52 45 -73
63 -21 18 -53 46 -71 62 -18 17 -70 64 -116 105 -147 131 -125 110 -455 425
-302 288 -547 537 -710 720 -44 50 -82 92 -85 95 -22 21 -139 172 -202 259
-81 112 -220 335 -255 411 -82 176 -109 246 -143 360 -88 297 -62 452 116 692
34 46 65 78 75 78 10 0 20 4 23 9 3 5 16 11 28 14 13 3 47 14 75 25 29 11 85
25 125 32 40 7 97 16 127 21 70 12 177 12 238 0 26 -5 80 -14 118 -21 100 -17
409 -104 500 -140 11 -5 29 -11 40 -13 26 -7 132 -45 170 -62 97 -42 140 -63
230 -107 143 -71 229 -119 233 -129 2 -5 8 -9 14 -9 11 0 85 -52 151 -105 20
-16 90 -81 155 -143 64 -63 170 -164 235 -225 65 -62 153 -146 196 -187 43
-41 127 -122 187 -180 124 -118 481 -461 584 -560 37 -36 131 -126 209 -200
78 -74 177 -168 219 -209 42 -40 117 -110 166 -155 49 -44 108 -99 131 -121
23 -22 60 -55 81 -74 22 -19 68 -62 104 -95 36 -34 105 -97 154 -141 49 -44
101 -91 116 -105 15 -14 60 -54 101 -90 40 -36 83 -74 95 -85 12 -11 54 -49
93 -84 181 -163 297 -232 439 -260 66 -14 354 -14 447 -1 78 11 106 20 184 59
53 26 181 134 181 153 0 5 11 24 24 41 13 18 35 61 47 97 21 59 24 86 27 290
5 280 -10 361 -88 475 -30 44 -123 137 -162 164 -31 20 -139 113 -190 164 -21
20 -40 37 -42 37 -2 0 -21 17 -43 38 -22 20 -71 65 -109 98 -38 34 -85 77
-105 95 -46 43 -206 189 -229 209 -100 87 -369 339 -561 523 -207 200 -555
534 -601 578 -111 106 -338 321 -424 404 -51 50 -157 151 -235 225 -208 199
-620 610 -726 725 -141 154 -146 160 -180 201 -62 77 -154 189 -161 199 -4 6
-25 35 -47 65 -48 66 -48 67 -78 105 -48 61 -127 175 -127 184 0 5 -4 11 -9
13 -5 2 -48 62 -95 133 -47 72 -90 135 -96 142 -5 7 -10 15 -10 19 0 4 -6 15
-14 23 -21 25 -104 181 -140 263 -21 48 -15 70 44 149 55 74 133 148 239 229
40 30 79 61 86 68 8 6 18 12 24 12 6 0 11 4 11 8 0 5 10 14 23 20 12 6 45 25
72 41 28 17 58 30 69 31 28 0 353 -98 451 -137 22 -8 50 -19 63 -24 77 -30
141 -59 267 -119 55 -26 107 -50 115 -54 8 -3 22 -10 30 -15 41 -24 164 -81
176 -81 8 0 14 -4 14 -10 0 -5 8 -10 19 -10 10 0 24 -7 31 -15 7 -8 17 -15 23
-15 6 0 78 -33 161 -74 83 -40 169 -81 191 -91 49 -21 205 -95 380 -180 72
-34 162 -77 200 -95 39 -17 102 -47 140 -65 39 -18 90 -42 115 -53 25 -11 70
-31 100 -45 30 -14 81 -37 112 -51 31 -14 60 -26 63 -26 3 0 32 -12 63 -26 31
-14 66 -29 77 -34 11 -4 52 -21 90 -38 118 -52 357 -148 415 -168 30 -10 60
-21 65 -25 6 -4 33 -15 60 -24 74 -25 378 -136 395 -144 8 -4 137 -47 285 -95
149 -48 332 -107 407 -132 75 -24 145 -44 156 -44 10 0 22 -4 27 -8 10 -8 83
-31 160 -50 22 -6 67 -18 100 -27 137 -37 354 -91 416 -104 24 -5 73 -17 109
-25 261 -62 602 -129 790 -155 41 -6 107 -16 145 -21 186 -28 346 -41 1026
-85 233 -15 269 -19 269 -35 0 -8 88 -141 110 -167 5 -7 10 -17 10 -23 0 -5 3
-10 8 -10 4 0 16 -16 26 -35 11 -19 23 -35 28 -35 4 0 8 -7 8 -15 0 -8 3 -15
8 -15 4 0 18 -16 31 -35 13 -19 31 -43 40 -54 9 -11 25 -32 36 -47 42 -59 142
-150 190 -174 17 -8 37 -19 45 -25 45 -34 105 -40 375 -40 289 0 301 2 403 56
66 35 146 113 189 182 65 103 73 144 73 352 l0 184 -48 48 c-58 59 -176 200
-262 314 -35 46 -67 86 -71 89 -9 7 -149 227 -149 235 0 4 -9 19 -19 33 -33
48 -120 225 -171 352 -12 30 -26 64 -31 75 -15 36 -56 169 -68 220 -7 28 -16
66 -22 86 -42 165 -54 384 -30 554 21 140 68 371 96 470 15 50 30 104 34 120
16 59 120 288 164 360 83 135 174 244 300 361 41 37 166 117 247 157 121 60
221 92 340 107 52 7 115 19 140 26 74 21 105 17 178 -23z m-43324 -1903 c45
-47 119 -128 166 -179 88 -97 269 -293 594 -643 168 -181 356 -376 951 -987
544 -560 1504 -1504 2020 -1986 302 -282 366 -341 470 -431 55 -47 105 -93
112 -101 11 -14 129 -119 510 -456 92 -82 222 -197 288 -256 121 -109 450
-392 540 -466 26 -22 88 -71 135 -110 48 -38 131 -106 184 -150 54 -44 126
-102 161 -130 35 -27 92 -72 127 -99 35 -27 115 -91 178 -141 101 -81 501
-393 679 -530 35 -28 87 -68 115 -89 61 -47 653 -492 711 -534 38 -28 287
-212 422 -311 34 -25 95 -70 135 -99 40 -29 154 -112 253 -185 99 -72 190
-139 201 -147 12 -8 67 -49 122 -90 56 -41 136 -100 179 -130 43 -30 114 -82
159 -115 45 -33 116 -85 158 -115 42 -30 115 -83 161 -117 46 -35 87 -63 91
-63 3 0 23 -13 43 -29 20 -15 77 -56 126 -89 50 -34 115 -79 145 -101 232
-166 1006 -684 1248 -835 61 -38 180 -114 212 -136 14 -9 173 -101 354 -205
300 -171 461 -258 721 -390 50 -25 124 -63 165 -85 41 -21 107 -54 145 -72 39
-19 79 -40 90 -46 33 -19 478 -230 703 -333 37 -17 85 -39 107 -50 22 -10 78
-34 125 -54 87 -37 163 -70 285 -125 39 -17 90 -39 115 -47 25 -8 51 -20 58
-26 13 -10 78 -37 250 -103 35 -13 84 -33 108 -45 25 -11 84 -34 132 -50 48
-17 100 -38 115 -46 15 -8 74 -30 130 -49 56 -20 107 -40 112 -44 6 -5 77 -31
160 -59 82 -28 167 -60 190 -71 35 -17 372 -132 465 -158 36 -11 129 -39 435
-131 272 -83 328 -99 365 -105 19 -3 91 -21 160 -40 69 -19 170 -44 225 -56
115 -25 152 -33 215 -48 42 -11 120 -28 300 -66 188 -40 330 -68 390 -77 128
-18 176 -26 240 -38 36 -7 88 -16 115 -21 28 -5 84 -15 125 -24 41 -8 113 -20
160 -27 47 -6 110 -18 141 -25 31 -8 69 -14 85 -14 15 0 41 -4 58 -9 17 -5 76
-17 131 -26 55 -9 129 -23 165 -30 36 -8 99 -19 140 -26 41 -6 93 -16 115 -21
22 -6 67 -14 100 -19 72 -10 158 -24 240 -39 33 -6 87 -15 120 -21 183 -28
264 -41 365 -58 36 -6 119 -18 185 -26 66 -8 152 -19 190 -25 39 -6 120 -17
180 -25 61 -7 164 -21 230 -30 66 -9 170 -22 230 -30 61 -8 139 -19 175 -25
36 -5 97 -15 135 -20 39 -6 99 -15 135 -21 36 -5 97 -14 135 -20 114 -15 196
-27 260 -38 33 -5 80 -12 105 -16 479 -65 641 -90 780 -121 353 -79 626 -149
733 -188 202 -73 350 -206 511 -456 27 -41 64 -92 82 -112 158 -177 276 -410
335 -668 33 -142 33 -413 1 -559 -83 -370 -299 -714 -687 -1093 -220 -215
-460 -388 -705 -507 -172 -84 -439 -178 -650 -230 -502 -122 -1008 -145 -1649
-75 l-143 16 -35 -34 c-19 -18 -51 -67 -71 -108 -37 -73 -37 -76 -37 -195 1
-108 3 -127 29 -190 104 -255 359 -448 670 -506 74 -14 586 -20 810 -9 l159 8
41 -42 c22 -22 120 -106 216 -186 97 -80 297 -246 445 -370 149 -124 295 -243
325 -265 30 -22 94 -71 142 -110 48 -38 106 -83 129 -100 23 -16 80 -58 128
-93 101 -73 207 -147 261 -182 21 -14 123 -81 227 -150 103 -69 197 -130 208
-137 24 -15 157 -97 205 -128 118 -75 201 -125 207 -125 3 0 21 -11 39 -25 18
-14 35 -25 39 -25 3 0 22 -11 43 -24 20 -13 82 -49 137 -81 55 -32 137 -80
183 -106 45 -27 85 -49 88 -49 3 0 18 -8 32 -18 15 -11 59 -36 97 -57 39 -21
99 -54 135 -74 92 -52 1092 -549 1230 -611 63 -29 158 -72 210 -95 52 -24 156
-71 230 -105 74 -33 171 -76 215 -95 44 -18 112 -47 150 -65 337 -154 1758
-671 2310 -840 17 -5 118 -37 225 -71 107 -34 247 -77 310 -96 63 -19 160 -48
215 -64 55 -17 143 -43 195 -59 653 -193 845 -264 1260 -469 47 -23 92 -46
100 -51 8 -5 56 -33 105 -62 99 -58 166 -114 200 -168 99 -156 166 -641 120
-860 -59 -281 -151 -371 -486 -478 -203 -65 -568 -137 -949 -186 -63 -9 -128
-18 -145 -21 -77 -14 -440 -46 -615 -55 -349 -17 -846 -17 -1150 0 -147 9
-975 74 -1200 95 -85 8 -256 21 -380 30 -281 19 -522 43 -1235 120 -869 94
-951 104 -1495 181 -168 24 -218 31 -575 89 -88 14 -203 32 -255 41 -52 8
-120 19 -150 24 -30 6 -111 19 -180 30 -69 11 -150 26 -180 34 -268 70 -522
24 -681 -122 -298 -274 -156 -789 276 -1004 98 -49 262 -97 440 -128 165 -29
478 -83 525 -90 30 -5 111 -18 180 -29 136 -23 263 -44 380 -61 41 -7 95 -16
120 -21 25 -4 79 -13 120 -19 41 -5 102 -14 135 -19 212 -33 854 -114 1190
-151 55 -6 136 -15 180 -20 195 -25 419 -50 530 -60 66 -6 210 -20 320 -30
110 -11 283 -27 385 -35 102 -9 199 -17 215 -19 17 -2 64 -7 105 -10 41 -4
158 -16 260 -26 102 -11 264 -26 360 -35 96 -9 225 -20 285 -26 450 -41 1018
-244 1615 -577 254 -142 433 -262 627 -424 142 -119 297 -293 454 -513 85
-118 96 -138 157 -281 l53 -122 -20 -108 c-55 -298 -128 -437 -347 -657 -183
-185 -332 -290 -584 -409 -360 -171 -775 -263 -1345 -297 -208 -13 -713 2
-990 29 -55 5 -176 17 -270 26 -93 8 -258 27 -365 41 -107 13 -231 29 -275 34
-44 5 -111 13 -150 19 -38 5 -122 17 -185 25 -63 8 -142 19 -175 25 -33 5
-123 18 -200 30 -165 24 -326 51 -520 86 -244 44 -297 54 -440 84 -77 16 -176
36 -220 44 -44 8 -190 38 -325 66 -135 28 -299 62 -365 75 -326 66 -879 187
-1120 245 -22 5 -112 25 -200 44 -229 51 -477 111 -905 220 -1010 257 -1201
306 -1270 324 -41 11 -165 43 -275 72 -110 28 -211 55 -225 60 -14 5 -90 25
-170 46 -662 169 -1449 389 -1839 515 -135 43 -221 59 -319 59 -159 0 -278
-43 -390 -139 -91 -78 -153 -195 -172 -322 -36 -240 80 -511 290 -678 134
-107 292 -177 640 -281 58 -18 155 -47 215 -65 61 -18 155 -47 210 -63 55 -17
134 -40 175 -52 41 -11 104 -29 140 -40 66 -20 145 -42 305 -85 169 -46 340
-92 550 -150 116 -31 282 -76 370 -100 88 -23 214 -57 280 -75 66 -18 167 -45
225 -60 58 -16 141 -38 185 -50 44 -12 136 -37 205 -55 177 -47 320 -86 355
-95 447 -124 1675 -430 2190 -545 236 -53 306 -69 565 -125 129 -28 253 -55
275 -60 22 -5 74 -16 115 -25 41 -9 93 -20 115 -26 109 -25 516 -110 645 -134
41 -7 152 -27 245 -44 94 -17 206 -38 250 -46 86 -16 280 -48 385 -65 36 -6
103 -17 150 -25 137 -23 357 -53 630 -85 140 -16 293 -34 340 -40 47 -5 135
-15 195 -20 61 -6 146 -15 190 -21 126 -15 645 -41 686 -34 81 14 91 -14 64
-178 -44 -269 -197 -523 -477 -792 -160 -153 -262 -235 -418 -337 -73 -47
-400 -216 -520 -268 -52 -23 -113 -50 -135 -60 -187 -87 -721 -269 -1025 -350
-107 -28 -231 -62 -275 -75 -185 -55 -543 -143 -735 -180 -259 -50 -879 -120
-1159 -131 -236 -9 -791 15 -1046 46 -44 5 -165 19 -270 30 -104 11 -224 27
-265 34 -41 8 -100 17 -130 21 -30 3 -73 10 -95 15 -22 5 -121 23 -220 40
-205 35 -271 48 -480 91 -82 16 -181 37 -220 44 -194 39 -278 57 -331 70 -28
7 -86 31 -130 53 -111 56 -196 75 -328 73 -101 0 -129 4 -355 59 -135 32 -318
78 -406 100 -88 23 -176 45 -195 50 -19 4 -78 19 -130 33 -52 14 -203 53 -335
87 -132 34 -271 70 -310 80 -119 32 -293 77 -455 119 -85 22 -182 47 -215 56
-62 17 -192 51 -465 123 -85 22 -236 63 -335 91 -99 27 -238 66 -310 85 -71
20 -159 45 -195 55 -36 11 -94 27 -130 36 -36 9 -85 22 -110 29 -82 24 -271
77 -580 162 -69 19 -154 43 -190 54 -36 11 -90 26 -120 34 -30 8 -89 24 -130
36 -41 12 -97 27 -125 35 -71 19 -816 231 -900 256 -38 11 -106 31 -150 44
-44 14 -105 31 -135 39 -30 8 -77 22 -105 30 -238 71 -278 79 -405 80 -99 1
-135 -3 -175 -18 -101 -37 -141 -62 -211 -129 -125 -118 -187 -279 -186 -482
1 -204 78 -414 209 -572 71 -86 110 -121 198 -178 84 -55 168 -87 409 -155
116 -33 265 -76 331 -95 334 -97 547 -158 615 -176 41 -11 111 -31 155 -45 44
-13 98 -29 120 -35 22 -6 67 -19 100 -29 33 -10 94 -28 135 -39 41 -12 118
-35 170 -50 83 -25 324 -94 475 -137 130 -36 333 -95 364 -105 19 -7 80 -24
135 -40 144 -39 281 -78 351 -99 161 -47 206 -59 285 -80 47 -13 105 -29 130
-36 25 -7 128 -36 230 -63 448 -121 481 -130 570 -157 25 -7 88 -24 140 -38
52 -14 129 -34 170 -45 41 -12 154 -42 250 -67 96 -25 213 -56 260 -69 182
-52 483 -131 898 -235 239 -60 440 -115 449 -122 37 -30 -13 -259 -94 -427
-58 -122 -106 -190 -218 -314 -135 -150 -202 -204 -445 -364 -63 -41 -124 -79
-135 -84 -11 -6 -29 -15 -40 -22 -140 -83 -213 -122 -374 -197 -173 -81 -475
-209 -611 -259 -216 -80 -602 -190 -895 -255 -66 -15 -138 -31 -160 -36 -60
-15 -295 -47 -520 -71 -164 -18 -262 -22 -545 -22 -190 0 -402 5 -472 11 -71
7 -185 17 -255 23 -263 22 -734 82 -928 118 -27 6 -70 13 -95 16 -42 6 -182
31 -420 76 -58 11 -121 24 -140 29 -19 5 -73 16 -120 25 -78 16 -441 104 -570
139 -171 46 -325 90 -395 111 -202 62 -456 139 -515 155 -81 23 -214 62 -302
89 -38 12 -96 30 -130 40 -473 143 -2869 948 -3323 1116 -38 14 -81 30 -95 34
-14 5 -81 30 -150 56 -69 26 -143 53 -165 61 -22 7 -69 24 -105 37 -36 14
-137 52 -225 85 -326 123 -660 259 -980 397 -110 48 -229 100 -265 115 -36 15
-96 42 -135 60 -38 18 -90 41 -115 52 -25 11 -79 36 -120 55 -41 20 -129 60
-195 90 -234 107 -1112 541 -1440 711 -358 186 -452 235 -480 252 -16 9 -93
50 -170 90 -200 104 -245 128 -605 325 -118 65 -252 140 -298 166 -45 27 -84
49 -86 49 -1 0 -68 37 -147 81 -187 106 -207 117 -314 179 -49 29 -110 64
-135 78 -25 14 -88 50 -140 80 -170 98 -364 208 -425 241 -33 18 -67 36 -75
41 -39 25 -139 81 -290 162 -91 50 -200 110 -242 134 -176 100 -248 140 -573
319 -187 103 -405 225 -485 270 -80 45 -228 126 -330 180 -102 54 -189 101
-195 105 -5 4 -77 42 -160 85 -82 43 -163 85 -180 95 -16 9 -70 39 -120 65
-49 27 -115 62 -145 78 -30 16 -98 52 -150 80 -206 109 -264 140 -505 274
-279 156 -684 388 -788 452 -37 22 -69 41 -72 41 -3 0 -34 18 -70 40 -36 22
-67 40 -70 40 -2 0 -45 25 -95 55 -50 30 -93 55 -96 55 -3 0 -29 16 -59 35
-30 19 -76 46 -102 60 -26 14 -68 38 -93 53 -25 16 -72 43 -105 61 -33 18 -65
37 -72 42 -19 17 -299 873 -462 1414 -1708 5692 -1983 11808 -796 17665 582
2871 1494 5602 2775 8310 111 235 557 1130 573 1149 9 10 19 5 51 -30 22 -24
76 -82 120 -129z"/>
</g>
</svg>
