<?xml version="1.0" standalone="no"?>
<!DOCTYPE svg PUBLIC "-//W3C//DTD SVG 20010904//EN"
 "http://www.w3.org/TR/2001/REC-SVG-20010904/DTD/svg10.dtd">
<svg version="1.0" xmlns="http://www.w3.org/2000/svg"
 width="8340.000000pt" height="2093.000000pt" viewBox="0 0 8340.000000 2093.000000"
 preserveAspectRatio="xMidYMid meet">

<g transform="translate(0.000000,2093.000000) scale(0.100000,-0.100000)"
fill="#000000" stroke="none">
<path d="M28245 19403 c-307 -835 -612 -1657 -678 -1828 -243 -632 -463 -1231
-1002 -2725 -248 -689 -464 -1274 -653 -1775 -100 -263 -2194 -5915 -2358
-6361 -8 -23 -24 -50 -35 -60 -20 -18 -60 -19 -1015 -22 l-994 -2 0 -290 0
-290 2645 0 2645 0 0 290 0 290 -1330 0 c-1154 0 -1330 2 -1330 14 0 26 50
175 116 347 111 290 1250 3351 1274 3423 12 37 35 82 50 100 l28 31 2258 3
2257 2 36 -38 c71 -75 145 -249 261 -612 34 -107 303 -883 596 -1723 294 -840
534 -1532 534 -1538 0 -7 -366 -10 -1121 -8 -1102 2 -1121 1 -1147 -18 -53
-39 -57 -58 -60 -321 l-4 -242 3481 0 3481 0 0 290 0 290 -979 0 c-923 0 -979
1 -986 18 -34 89 -1547 4375 -1642 4652 -68 201 -180 514 -248 695 -165 441
-2812 7902 -2932 8265 -93 282 -183 520 -229 613 l-24 47 -169 0 -168 0 -558
-1517z m-269 -2540 c43 -193 252 -803 731 -2133 124 -344 256 -715 293 -825
37 -110 136 -389 220 -620 84 -231 178 -496 210 -590 32 -93 106 -305 165
-470 59 -165 136 -390 172 -500 36 -110 87 -254 113 -320 52 -130 95 -263 88
-271 -3 -2 -941 -3 -2085 -2 l-2081 3 170 460 c160 437 223 608 646 1775 99
272 313 854 476 1293 163 439 403 1107 535 1485 132 378 244 699 250 715 9 23
16 27 51 27 35 0 40 -3 46 -27z"/>
<path d="M76031 20895 c-41 -35 -60 -73 -105 -213 -20 -63 -287 -789 -593
-1615 -305 -826 -597 -1619 -648 -1762 -110 -307 -176 -483 -320 -855 -151
-389 -238 -622 -355 -955 -175 -497 -319 -887 -645 -1740 -346 -906 -571
-1514 -1250 -3375 -603 -1653 -887 -2422 -1164 -3147 -44 -116 -97 -267 -117
-335 -43 -147 -77 -214 -123 -245 l-34 -23 -973 0 -974 0 0 -290 0 -290 2645
0 2645 0 0 290 0 290 -1334 0 -1334 0 9 43 c29 132 201 598 659 1792 483 1257
682 1803 736 2013 l18 72 2313 0 2312 0 16 -57 c61 -220 239 -721 630 -1778
290 -782 450 -1223 556 -1528 80 -232 169 -516 169 -543 0 -12 -172 -14 -1165
-14 l-1165 0 0 -290 0 -290 3480 0 3480 0 0 290 0 290 -950 0 -950 0 -38 39
c-79 81 -133 216 -327 806 -302 925 -612 1797 -1385 3905 -677 1845 -871 2389
-1250 3505 -119 352 -612 1752 -1095 3110 -482 1359 -908 2557 -945 2664 -53
152 -75 200 -99 225 l-31 31 -133 3 c-133 4 -133 4 -166 -23z m139 -6865 c557
-1581 1015 -2881 1018 -2887 3 -10 -417 -13 -2082 -13 l-2086 0 6 28 c17 71
73 227 156 437 50 126 135 355 188 510 54 154 135 379 180 500 77 208 398
1078 689 1870 73 198 178 486 234 640 151 420 623 1715 640 1755 18 41 28 53
38 43 3 -5 462 -1302 1019 -2883z"/>
<path d="M441 20565 c-67 -57 -87 -166 -101 -573 -14 -369 -39 -710 -100
-1362 -59 -632 -86 -970 -100 -1270 -6 -124 -38 -522 -70 -885 -33 -363 -60
-691 -60 -730 0 -82 13 -112 58 -138 29 -17 53 -19 274 -18 133 1 243 2 244 4
1 1 37 151 79 332 154 660 250 1012 386 1420 294 877 646 1501 1073 1902 278
260 683 490 1069 607 373 113 681 136 1630 121 l477 -7 0 -6669 0 -6669 -1272
0 c-1243 0 -1274 -1 -1305 -20 -47 -28 -53 -65 -53 -327 l0 -233 3895 0 3895
0 0 290 0 290 -1290 0 -1290 0 0 6669 0 6669 468 7 c805 13 1087 0 1415 -65
538 -108 1066 -410 1433 -818 197 -219 338 -426 478 -702 237 -466 423 -915
519 -1255 87 -307 327 -1251 342 -1349 9 -55 22 -113 29 -131 23 -54 53 -60
308 -60 l228 0 27 27 c36 36 40 107 20 315 -9 87 -19 217 -22 288 -8 168 -25
367 -80 915 -46 463 -70 738 -80 925 -30 580 -106 1661 -131 1870 -9 72 -19
220 -23 330 -9 217 -20 267 -69 305 -25 20 -59 20 -6148 20 l-6122 0 -31 -25z"/>
<path d="M46313 20578 c-37 -18 -43 -54 -45 -288 -3 -248 2 -279 53 -305 24
-13 186 -15 1134 -15 l1105 0 0 -6670 0 -6670 -1145 0 -1145 0 0 -290 0 -290
6103 0 6104 0 12 142 c7 79 37 377 67 663 30 286 61 612 70 725 9 113 71 876
140 1695 68 820 124 1499 124 1509 0 16 -15 17 -247 14 -273 -3 -299 -9 -321
-65 -7 -15 -28 -102 -47 -193 -92 -426 -254 -1004 -400 -1420 -286 -817 -554
-1290 -973 -1714 -401 -405 -864 -633 -1479 -726 -295 -44 -262 -44 -2315 -47
l-1968 -4 0 6671 0 6670 1210 0 1210 0 0 310 0 310 -3612 -1 c-2509 0 -3620
-4 -3635 -11z"/>
<path d="M41065 3340 c-258 -3 -366 -8 -381 -17 -36 -20 -44 -66 -44 -239 l0
-164 270 0 270 0 0 -1455 0 -1455 210 0 210 0 0 1455 0 1455 268 0 269 0 7
149 c7 165 -1 211 -44 242 -55 41 -122 43 -1035 29z"/>
<path d="M53413 3343 l-183 -3 0 -1665 0 -1665 168 0 c185 0 197 3 230 63 16
29 17 70 15 479 -3 508 -9 475 79 419 61 -39 101 -90 211 -267 52 -84 151
-230 220 -326 69 -96 151 -218 183 -271 l58 -97 228 0 228 0 -15 38 c-34 80
-102 186 -262 402 -91 124 -188 258 -215 299 -57 84 -128 218 -128 242 0 11
19 21 63 33 185 51 333 164 400 306 84 179 94 297 80 985 -12 570 -13 582 -69
701 -33 70 -111 155 -183 198 -77 47 -213 91 -341 111 -112 17 -440 25 -767
18z m820 -427 c130 -47 141 -116 126 -831 -10 -487 -20 -630 -48 -658 -12 -12
-123 -35 -229 -47 -49 -5 -165 -7 -264 -3 l-178 6 0 768 0 768 43 4 c23 2 148
4 277 5 176 1 245 -2 273 -12z"/>
<path d="M28560 1675 l0 -1665 580 0 580 0 0 185 0 185 -375 0 -375 0 -1 1438
c-1 790 -4 1448 -8 1462 -13 49 -58 60 -238 60 l-163 0 0 -1665z"/>
<path d="M32484 3326 c-20 -9 -35 -25 -43 -46 -8 -24 -11 -470 -11 -1651 l0
-1619 665 0 665 0 0 185 0 185 -457 2 -458 3 -3 498 -2 497 400 0 400 0 0 185
0 185 -397 2 -398 3 -3 583 -2 582 460 0 460 0 0 210 0 210 -622 0 c-502 -1
-629 -3 -654 -14z"/>
<path d="M44850 1675 l0 -1665 205 0 205 0 0 665 0 665 360 0 360 0 0 -665 0
-665 205 0 205 0 0 1619 c0 1123 -3 1627 -11 1649 -18 52 -55 62 -238 62
l-161 0 -2 -812 -3 -813 -355 0 -355 0 -5 785 c-3 432 -9 791 -14 799 -20 32
-74 41 -236 41 l-160 0 0 -1665z"/>
<path d="M49140 1675 l0 -1665 665 0 665 0 0 185 0 185 -455 0 -455 0 0 500 0
500 395 0 395 0 0 185 0 185 -395 0 -395 0 0 585 0 585 455 0 455 0 0 210 0
210 -665 0 -665 0 0 -1665z"/>
<path d="M36910 3290 c-131 -28 -266 -144 -341 -295 l-44 -88 -3 -1449 -2
-1448 205 0 205 0 0 500 0 500 355 0 355 0 0 -500 0 -500 205 0 205 0 0 1413
c0 1550 2 1484 -61 1612 -59 121 -171 200 -339 241 -63 15 -126 18 -385 20
-170 2 -330 -1 -355 -6z m636 -383 c37 -19 70 -55 83 -90 8 -19 11 -252 11
-713 l0 -684 -355 0 -355 0 0 710 c0 618 2 715 15 740 9 17 17 30 18 30 1 0
20 7 42 15 56 22 497 15 541 -8z"/>
<path d="M60270 1940 l0 -310 11565 0 11565 0 0 310 0 310 -11565 0 -11565 0
0 -310z"/>
<path d="M10 1398 c0 -150 3 -283 6 -296 4 -12 19 -29 35 -37 24 -13 1469 -15
11554 -15 l11525 0 0 310 0 310 -11560 0 -11560 0 0 -272z"/>
</g>
</svg>
